<?xml version="1.0" encoding="UTF-8"?><svg id="Layer_1" xmlns="http://www.w3.org/2000/svg" viewBox="0 0 80 139"><defs><style>.cls-1{fill:none;stroke:#38d5ff;stroke-linecap:round;stroke-linejoin:round;stroke-width:2px;}.cls-2{fill:#38d5ff;}</style></defs><circle class="cls-2" cx="40" cy="6" r="6"/><line class="cls-1" x1="40" y1="19.48" x2="40" y2="29.48"/><line class="cls-1" x1="40" y1="40.48" x2="40" y2="50.48"/><circle class="cls-2" cx="6" cy="6" r="6"/><path class="cls-1" d="M12,20.48c.22,1.34.74,3.49,2.12,5.77,1.21,2,2.61,3.34,3.61,4.16"/><path class="cls-1" d="M23.47,40.34c.99.81,2.36,2.13,3.55,4.08,1.42,2.31,1.95,4.49,2.18,5.85"/><circle class="cls-2" cx="74" cy="6" r="6"/><path class="cls-1" d="M68,20.48c-.22,1.34-.74,3.49-2.12,5.77-1.21,2-2.61,3.34-3.61,4.16"/><path class="cls-1" d="M56.53,40.34c-.99.81-2.36,2.13-3.55,4.08-1.42,2.31-1.95,4.49-2.18,5.85"/><circle class="cls-2" cx="40" cy="67" r="8"/><path class="cls-1" d="M46,80.48c.22,1.34.74,3.49,2.12,5.77,1.21,2,2.61,3.34,3.61,4.16"/><path class="cls-1" d="M57.47,100.34c.99.81,2.36,2.13,3.55,4.08,1.42,2.31,1.95,4.49,2.18,5.85"/><circle class="cls-2" cx="66" cy="128" r="11"/></svg>