<?xml version="1.0" encoding="UTF-8"?><svg id="Layer_1" xmlns="http://www.w3.org/2000/svg" viewBox="0 0 125.81 78"><defs><style>.cls-1{fill:none;stroke:#38d5ff;stroke-linecap:round;stroke-linejoin:round;stroke-width:2px;}.cls-2{fill:#38d5ff;}</style></defs><circle class="cls-2" cx="40" cy="6" r="6"/><line class="cls-1" x1="40" y1="19.48" x2="40" y2="29.48"/><line class="cls-1" x1="40" y1="40.48" x2="40" y2="50.48"/><circle class="cls-2" cx="6" cy="6" r="6"/><path class="cls-1" d="M12,20.48c.22,1.34.74,3.49,2.12,5.77,1.21,2,2.61,3.34,3.61,4.16"/><path class="cls-1" d="M23.47,40.34c.99.81,2.36,2.13,3.55,4.08,1.42,2.31,1.95,4.49,2.18,5.85"/><circle class="cls-2" cx="74" cy="6" r="6"/><path class="cls-1" d="M68,20.48c-.22,1.34-.74,3.49-2.12,5.77-1.21,2-2.61,3.34-3.61,4.16"/><path class="cls-1" d="M56.53,40.34c-.99.81-2.36,2.13-3.55,4.08-1.42,2.31-1.95,4.49-2.18,5.85"/><circle class="cls-2" cx="39.98" cy="67" r="8"/><path class="cls-1" d="M56.65,67c1.51.48,4.01,1.1,7.16,1.05,2.76-.05,4.96-.59,6.39-1.05"/><path class="cls-1" d="M81.75,67c1.42-.45,3.58-.98,6.27-1.04,3.2-.07,5.75.55,7.28,1.04"/><circle class="cls-2" cx="114.81" cy="67" r="11"/></svg>