<?xml version="1.0" encoding="UTF-8"?><svg id="Layer_1" xmlns="http://www.w3.org/2000/svg" xmlns:xlink="http://www.w3.org/1999/xlink" viewBox="0 0 831.84 138.7"><defs><style>.cls-1{fill:url(#linear-gradient);}.cls-2{fill:#080b10;}.cls-3{fill:#f4f7fa;}</style><linearGradient id="linear-gradient" x1="477.69" y1="70.83" x2="831.84" y2="70.83" gradientUnits="userSpaceOnUse"><stop offset="0" stop-color="#38d5ff" stop-opacity="0"/><stop offset=".5" stop-color="#38d5ff" stop-opacity=".25"/><stop offset=".88" stop-color="#38d5ff"/><stop offset="1" stop-color="#38d5ff"/></linearGradient></defs><path class="cls-3" d="M797.87,36.86l-4.7,22.04-4.3,20.14-5.5,25.75,48.47-33.96-33.97-33.97Z"/><path class="cls-2" d="M67.73,20.14V0H0v135.66h23.18v-56.62h41.51v-20.14H23.18V20.14h44.55Z"/><path class="cls-2" d="M117.27,33.82c-12.67,0-22.3,4.47-28.88,13.4-6.59,8.93-9.88,22.01-9.88,39.23,0,34.84,12.73,52.25,38.19,52.25,12.79,0,22.45-4.49,28.97-13.49,6.53-8.99,9.79-22.1,9.79-39.33,0-34.7-12.73-52.06-38.19-52.06ZM129.14,113.53c-2.47,5.51-6.55,8.26-12.25,8.26s-9.44-2.75-11.97-8.26c-2.54-5.51-3.8-14.6-3.8-27.27s1.23-21.91,3.7-27.36c2.47-5.44,6.56-8.17,12.26-8.17s9.59,2.73,12.06,8.17c2.47,5.45,3.71,14.51,3.71,27.17s-1.24,21.95-3.71,27.46Z"/><path class="cls-2" d="M173.51,0v135.66h21.85V0h-21.85Z"/><path class="cls-2" d="M217.39,0v135.66h21.85V0h-21.85Z"/><path class="cls-2" d="M296.05,33.82c-12.67,0-22.29,4.47-28.88,13.4-6.59,8.93-9.88,22.01-9.88,39.23,0,34.84,12.73,52.25,38.19,52.25,12.79,0,22.45-4.49,28.98-13.49,6.52-8.99,9.78-22.1,9.78-39.33,0-34.7-12.73-52.06-38.19-52.06ZM307.93,113.53c-2.47,5.51-6.56,8.26-12.26,8.26s-9.44-2.75-11.97-8.26c-2.53-5.51-3.8-14.6-3.8-27.27s1.24-21.91,3.71-27.36c2.47-5.44,6.55-8.17,12.25-8.17s9.6,2.73,12.07,8.17c2.47,5.45,3.7,14.51,3.7,27.17s-1.23,21.95-3.7,27.46Z"/><path class="cls-2" d="M433.42,36.86l-10.83,72.77-14.06-72.2h-18.24l-14.63,72.77-10.45-73.34h-22.99l21.09,98.8h20.9l14.82-71.25,14.06,71.25h20.9l21.09-98.8h-21.66Z"/><path class="cls-2" d="M545.42,20.14V0h-67.73v135.66h23.18v-56.62h41.51v-20.14h-41.51V20.14h44.55Z"/><path class="cls-2" d="M560.19,0v135.66h21.85V0h-21.85Z"/><path class="cls-2" d="M676.85,79.04c-.41-7.7-1.54-14.41-3.4-20.14-5.4-16.72-16.93-25.08-34.61-25.08-12.66,0-22.29,4.47-28.87,13.4-2.45,3.32-4.44,7.21-5.99,11.68-1.98,5.76-3.21,12.47-3.68,20.14-.15,2.38-.22,4.85-.22,7.41,0,34.84,12.74,52.25,38.2,52.25,12.79,0,22.45-4.49,28.97-13.49,6.52-8.99,9.78-22.1,9.78-39.33,0-2.36-.06-4.64-.18-6.84ZM650.72,113.53c-2.47,5.51-6.56,8.26-12.25,8.26s-9.44-2.75-11.98-8.26c-2.53-5.51-3.79-14.6-3.79-27.27,0-2.55.05-4.96.15-7.22.39-9.06,1.57-15.78,3.55-20.14,2.47-5.44,6.55-8.17,12.26-8.17s9.59,2.73,12.06,8.17c1.99,4.38,3.17,11.09,3.56,20.14.09,2.2.14,4.55.14,7.03,0,12.8-1.23,21.95-3.7,27.46Z"/><path class="cls-2" d="M776.21,36.86l-3.28,22.04-3,20.14-4.55,30.59-5.96-30.59-3.92-20.14-4.18-21.47h-18.24l-4.32,21.47-4.05,20.14-6.26,31.16-4.44-31.16-2.87-20.14-3.14-22.04h-22.99l4.7,22.04,4.3,20.14,12.09,56.62h20.9l11.78-56.62,3.04-14.63,2.89,14.63,11.17,56.62h20.9l12.09-56.62,4.3-20.14,4.7-22.04h-21.66Z"/><path class="cls-1" d="M542.38,58.9v20.14h-64.69v-20.14h64.69ZM560.19,79.04h21.85v-20.14h-21.85v20.14ZM600.3,79.04h22.55c.39-9.06,1.57-15.78,3.55-20.14h-22.42c-1.98,5.76-3.21,12.47-3.68,20.14ZM650.72,58.9c1.99,4.38,3.17,11.09,3.56,20.14h22.57c-.41-7.7-1.54-14.41-3.4-20.14h-22.73ZM689.71,58.9l4.3,20.14h20l-2.87-20.14h-21.43ZM728.76,58.9l-4.05,20.14h14.07l3.04-14.63,2.89,14.63h14.71l-3.92-20.14h-26.74ZM831.84,70.83l-33.97-33.97-4.7,22.04h-20.24l-3,20.14h18.94l-5.5,25.75,48.47-33.97Z"/></svg>